# This file uses centimeters as units for non-parametric coordinates.

mtllib Wall.mtl
g default
v -161.159180 3.679724 158.416183
v 158.840820 3.679724 158.416183
v -161.159180 -2.533850 158.416183
v 158.840820 -2.533850 158.416183
v -161.159180 3.679724 -161.583847
v -161.159180 -2.533850 -161.583847
v 158.840851 3.679724 -161.583847
v 158.840851 -2.533850 -161.583847
vt 0.012215 -0.007091
vt 25.644077 -0.007091
vt 25.644077 0.997723
vt 0.012215 0.997722
vt 0.012215 0.997722
vt 0.012215 -0.007091
vt 25.644077 -0.007091
vt 25.644077 0.997723
vt 0.012215 0.997722
vt 0.012215 -0.007091
vt 25.644077 -0.007091
vt 25.644077 0.997723
vt 0.012215 0.997722
vt 0.012215 -0.007091
vt 25.644077 -0.007091
vt 25.644077 0.997723
vn 0.000000 0.000000 -1.000000
vn 0.000000 0.000000 -1.000000
vn 0.000000 0.000000 -1.000000
vn 0.000000 0.000000 -1.000000
vn 1.000000 0.000000 0.000000
vn 1.000000 0.000000 0.000000
vn 1.000000 0.000000 0.000000
vn 1.000000 0.000000 0.000000
vn 0.000000 0.000000 1.000000
vn 0.000000 0.000000 1.000000
vn 0.000000 0.000000 1.000000
vn 0.000000 0.000000 1.000000
vn -1.000000 0.000000 0.000000
vn -1.000000 0.000000 0.000000
vn -1.000000 0.000000 0.000000
vn -1.000000 0.000000 0.000000
s off
g pPlane1
usemtl Wall_initialShadingGroup
f 1/1/1 2/2/2 4/3/3 3/4/4
f 1/5/5 3/6/6 6/7/7 5/8/8
f 5/9/9 6/10/10 8/11/11 7/12/12
f 7/13/13 8/14/14 4/15/15 2/16/16
